<svg width="362" height="171" viewBox="0 0 362 171" fill="none" xmlns="http://www.w3.org/2000/svg">
<path d="M74.325 164.02H77.727V165H73.051V155.298H74.325V164.02ZM86.0249 160.842C86.0249 161.113 86.0063 161.365 85.9689 161.598H79.8509C79.8883 162.363 80.1263 162.97 80.5649 163.418C81.0129 163.857 81.5823 164.076 82.2729 164.076C82.7956 164.076 83.2343 163.959 83.5889 163.726C83.9529 163.493 84.2189 163.185 84.3869 162.802H85.7589C85.5163 163.474 85.0963 164.029 84.4989 164.468C83.9109 164.907 83.1689 165.126 82.2729 165.126C81.5543 165.126 80.9103 164.963 80.3409 164.636C79.7809 164.309 79.3423 163.847 79.0249 163.25C78.7076 162.643 78.5489 161.948 78.5489 161.164C78.5489 160.371 78.7076 159.675 79.0249 159.078C79.3423 158.471 79.7903 158.005 80.3689 157.678C80.9476 157.351 81.6149 157.188 82.3709 157.188C83.0896 157.188 83.7243 157.347 84.2749 157.664C84.8256 157.981 85.2549 158.415 85.5629 158.966C85.8709 159.517 86.0249 160.142 86.0249 160.842ZM84.6949 160.674C84.6949 160.179 84.5876 159.75 84.3729 159.386C84.1583 159.013 83.8643 158.728 83.4909 158.532C83.1269 158.336 82.7209 158.238 82.2729 158.238C81.6103 158.238 81.0549 158.457 80.6069 158.896C80.1589 159.325 79.9116 159.918 79.8649 160.674H84.6949ZM90.7755 157.188C91.4289 157.188 91.9982 157.342 92.4835 157.65C92.9782 157.958 93.3515 158.359 93.6035 158.854V157.314H94.8915V165H93.6035V163.432C93.3515 163.936 92.9782 164.347 92.4835 164.664C91.9982 164.972 91.4289 165.126 90.7755 165.126C90.0849 165.126 89.4595 164.958 88.8995 164.622C88.3489 164.277 87.9102 163.801 87.5835 163.194C87.2662 162.578 87.1075 161.883 87.1075 161.108C87.1075 160.333 87.2662 159.652 87.5835 159.064C87.9102 158.467 88.3489 158.005 88.8995 157.678C89.4595 157.351 90.0849 157.188 90.7755 157.188ZM90.9995 158.294C90.5422 158.294 90.1129 158.406 89.7115 158.63C89.3195 158.854 89.0022 159.181 88.7595 159.61C88.5262 160.03 88.4095 160.529 88.4095 161.108C88.4095 161.687 88.5262 162.2 88.7595 162.648C89.0022 163.087 89.3195 163.427 89.7115 163.67C90.1129 163.913 90.5422 164.034 90.9995 164.034C91.4662 164.034 91.8955 163.917 92.2875 163.684C92.6889 163.451 93.0062 163.119 93.2395 162.69C93.4822 162.251 93.6035 161.743 93.6035 161.164C93.6035 160.585 93.4822 160.081 93.2395 159.652C93.0062 159.213 92.6889 158.877 92.2875 158.644C91.8955 158.411 91.4662 158.294 90.9995 158.294ZM100.154 157.188C100.808 157.188 101.377 157.342 101.862 157.65C102.357 157.958 102.73 158.359 102.982 158.854V154.64H104.27V165H102.982V163.432C102.73 163.936 102.357 164.347 101.862 164.664C101.377 164.972 100.808 165.126 100.154 165.126C99.4638 165.126 98.8384 164.958 98.2784 164.622C97.7278 164.277 97.2891 163.801 96.9624 163.194C96.6451 162.578 96.4864 161.883 96.4864 161.108C96.4864 160.333 96.6451 159.652 96.9624 159.064C97.2891 158.467 97.7278 158.005 98.2784 157.678C98.8384 157.351 99.4638 157.188 100.154 157.188ZM100.378 158.294C99.9211 158.294 99.4918 158.406 99.0904 158.63C98.6984 158.854 98.3811 159.181 98.1384 159.61C97.9051 160.03 97.7884 160.529 97.7884 161.108C97.7884 161.687 97.9051 162.2 98.1384 162.648C98.3811 163.087 98.6984 163.427 99.0904 163.67C99.4918 163.913 99.9211 164.034 100.378 164.034C100.845 164.034 101.274 163.917 101.666 163.684C102.068 163.451 102.385 163.119 102.618 162.69C102.861 162.251 102.982 161.743 102.982 161.164C102.982 160.585 102.861 160.081 102.618 159.652C102.385 159.213 102.068 158.877 101.666 158.644C101.274 158.411 100.845 158.294 100.378 158.294ZM109.015 157.188C109.846 157.188 110.504 157.407 110.989 157.846C111.475 158.275 111.741 158.868 111.787 159.624H110.471C110.453 159.195 110.308 158.849 110.037 158.588C109.767 158.327 109.393 158.196 108.917 158.196C108.432 158.196 108.049 158.313 107.769 158.546C107.499 158.77 107.363 159.055 107.363 159.4C107.363 159.689 107.447 159.923 107.615 160.1C107.793 160.268 108.007 160.394 108.259 160.478C108.521 160.562 108.871 160.651 109.309 160.744C109.869 160.875 110.317 161.005 110.653 161.136C110.999 161.257 111.293 161.467 111.535 161.766C111.778 162.055 111.899 162.452 111.899 162.956C111.899 163.376 111.778 163.754 111.535 164.09C111.293 164.417 110.952 164.673 110.513 164.86C110.075 165.037 109.571 165.126 109.001 165.126C108.143 165.126 107.452 164.911 106.929 164.482C106.416 164.053 106.136 163.46 106.089 162.704H107.405C107.424 163.133 107.573 163.479 107.853 163.74C108.143 163.992 108.525 164.118 109.001 164.118C109.524 164.118 109.925 164.011 110.205 163.796C110.495 163.581 110.639 163.297 110.639 162.942C110.639 162.653 110.551 162.424 110.373 162.256C110.205 162.079 109.991 161.948 109.729 161.864C109.468 161.771 109.109 161.673 108.651 161.57C108.101 161.449 107.653 161.327 107.307 161.206C106.971 161.075 106.682 160.875 106.439 160.604C106.206 160.333 106.089 159.96 106.089 159.484C106.089 159.064 106.206 158.681 106.439 158.336C106.682 157.981 107.023 157.701 107.461 157.496C107.909 157.291 108.427 157.188 109.015 157.188ZM123.396 155.298V156.32H119.21V159.61H122.514V160.618H119.21V165H117.936V155.298H123.396ZM126.073 158.616C126.53 157.664 127.31 157.188 128.411 157.188V158.518H128.075C127.422 158.518 126.922 158.691 126.577 159.036C126.241 159.372 126.073 159.96 126.073 160.8V165H124.799V157.314H126.073V158.616ZM133.327 157.188C134.055 157.188 134.713 157.351 135.301 157.678C135.889 158.005 136.351 158.471 136.687 159.078C137.033 159.685 137.205 160.38 137.205 161.164C137.205 161.939 137.028 162.629 136.673 163.236C136.319 163.833 135.838 164.3 135.231 164.636C134.625 164.963 133.953 165.126 133.215 165.126C132.497 165.126 131.848 164.963 131.269 164.636C130.7 164.309 130.252 163.847 129.925 163.25C129.608 162.643 129.449 161.948 129.449 161.164C129.449 160.371 129.617 159.675 129.953 159.078C130.299 158.471 130.765 158.005 131.353 157.678C131.941 157.351 132.599 157.188 133.327 157.188ZM133.285 158.238C132.819 158.238 132.394 158.35 132.011 158.574C131.629 158.798 131.321 159.129 131.087 159.568C130.863 160.007 130.751 160.539 130.751 161.164C130.751 161.78 130.859 162.307 131.073 162.746C131.297 163.185 131.596 163.516 131.969 163.74C132.343 163.964 132.758 164.076 133.215 164.076C133.682 164.076 134.116 163.964 134.517 163.74C134.928 163.507 135.259 163.171 135.511 162.732C135.763 162.293 135.889 161.771 135.889 161.164C135.889 160.548 135.768 160.021 135.525 159.582C135.292 159.134 134.975 158.798 134.573 158.574C134.181 158.35 133.752 158.238 133.285 158.238ZM148.039 157.188C148.599 157.188 149.108 157.314 149.565 157.566C150.022 157.809 150.382 158.177 150.643 158.672C150.914 159.157 151.049 159.75 151.049 160.45V165H149.789V160.66C149.789 159.885 149.598 159.297 149.215 158.896C148.842 158.495 148.328 158.294 147.675 158.294C147.022 158.294 146.504 158.495 146.121 158.896C145.748 159.297 145.561 159.885 145.561 160.66V165H144.301V160.66C144.301 159.885 144.114 159.297 143.741 158.896C143.368 158.495 142.85 158.294 142.187 158.294C141.534 158.294 141.016 158.495 140.633 158.896C140.26 159.297 140.073 159.885 140.073 160.66V165H138.799V157.314H140.073V158.56C140.325 158.112 140.67 157.771 141.109 157.538C141.548 157.305 142.038 157.188 142.579 157.188C143.167 157.188 143.699 157.333 144.175 157.622C144.651 157.902 145.01 158.313 145.253 158.854C145.533 158.331 145.911 157.925 146.387 157.636C146.872 157.337 147.423 157.188 148.039 157.188ZM161.708 155.2C162.613 155.2 163.439 155.41 164.186 155.83C164.942 156.25 165.539 156.838 165.978 157.594C166.416 158.341 166.636 159.19 166.636 160.142C166.636 161.085 166.416 161.934 165.978 162.69C165.539 163.446 164.942 164.039 164.186 164.468C163.439 164.888 162.613 165.098 161.708 165.098C160.802 165.098 159.972 164.888 159.216 164.468C158.46 164.039 157.862 163.446 157.424 162.69C156.985 161.934 156.766 161.085 156.766 160.142C156.766 159.19 156.985 158.341 157.424 157.594C157.862 156.838 158.46 156.25 159.216 155.83C159.972 155.41 160.802 155.2 161.708 155.2ZM161.708 156.334C161.017 156.334 160.392 156.493 159.832 156.81C159.281 157.118 158.847 157.561 158.53 158.14C158.212 158.719 158.054 159.386 158.054 160.142C158.054 160.898 158.212 161.565 158.53 162.144C158.847 162.723 159.281 163.171 159.832 163.488C160.392 163.805 161.017 163.964 161.708 163.964C162.398 163.964 163.019 163.805 163.57 163.488C164.12 163.171 164.55 162.723 164.858 162.144C165.175 161.565 165.334 160.898 165.334 160.142C165.334 159.386 165.175 158.719 164.858 158.14C164.55 157.561 164.12 157.118 163.57 156.81C163.019 156.493 162.398 156.334 161.708 156.334ZM171.791 163.964V165H170.503C169.85 165 169.35 164.841 169.005 164.524C168.669 164.207 168.501 163.707 168.501 163.026V158.35H167.507V157.314H168.501V155.41H169.789V157.314H171.777V158.35H169.789V163.026C169.789 163.371 169.859 163.614 169.999 163.754C170.139 163.894 170.386 163.964 170.741 163.964H171.791ZM176.977 157.188C177.528 157.188 178.027 157.314 178.475 157.566C178.933 157.809 179.292 158.177 179.553 158.672C179.824 159.157 179.959 159.75 179.959 160.45V165H178.699V160.66C178.699 159.885 178.513 159.297 178.139 158.896C177.766 158.495 177.248 158.294 176.585 158.294C175.932 158.294 175.414 158.495 175.031 158.896C174.658 159.297 174.471 159.885 174.471 160.66V165H173.197V154.64H174.471V158.56C174.723 158.112 175.069 157.771 175.507 157.538C175.946 157.305 176.436 157.188 176.977 157.188ZM188.96 160.842C188.96 161.113 188.942 161.365 188.904 161.598H182.786C182.824 162.363 183.062 162.97 183.5 163.418C183.948 163.857 184.518 164.076 185.208 164.076C185.731 164.076 186.17 163.959 186.524 163.726C186.888 163.493 187.154 163.185 187.322 162.802H188.694C188.452 163.474 188.032 164.029 187.434 164.468C186.846 164.907 186.104 165.126 185.208 165.126C184.49 165.126 183.846 164.963 183.276 164.636C182.716 164.309 182.278 163.847 181.96 163.25C181.643 162.643 181.484 161.948 181.484 161.164C181.484 160.371 181.643 159.675 181.96 159.078C182.278 158.471 182.726 158.005 183.304 157.678C183.883 157.351 184.55 157.188 185.306 157.188C186.025 157.188 186.66 157.347 187.21 157.664C187.761 157.981 188.19 158.415 188.498 158.966C188.806 159.517 188.96 160.142 188.96 160.842ZM187.63 160.674C187.63 160.179 187.523 159.75 187.308 159.386C187.094 159.013 186.8 158.728 186.426 158.532C186.062 158.336 185.656 158.238 185.208 158.238C184.546 158.238 183.99 158.457 183.542 158.896C183.094 159.325 182.847 159.918 182.8 160.674H187.63ZM191.821 158.616C192.278 157.664 193.058 157.188 194.159 157.188V158.518H193.823C193.17 158.518 192.67 158.691 192.325 159.036C191.989 159.372 191.821 159.96 191.821 160.8V165H190.547V157.314H191.821V158.616ZM201.173 160.996V165H199.899V155.298H203.049C203.777 155.298 204.393 155.424 204.897 155.676C205.401 155.919 205.779 156.259 206.031 156.698C206.283 157.127 206.409 157.613 206.409 158.154C206.409 158.975 206.129 159.657 205.569 160.198C205.018 160.73 204.178 160.996 203.049 160.996H201.173ZM203.049 159.988C203.749 159.988 204.267 159.829 204.603 159.512C204.948 159.185 205.121 158.733 205.121 158.154C205.121 157.575 204.953 157.127 204.617 156.81C204.281 156.483 203.758 156.32 203.049 156.32H201.173V159.988H203.049ZM209.266 158.616C209.724 157.664 210.503 157.188 211.604 157.188V158.518H211.268C210.615 158.518 210.116 158.691 209.77 159.036C209.434 159.372 209.266 159.96 209.266 160.8V165H207.992V157.314H209.266V158.616ZM216.521 157.188C217.249 157.188 217.907 157.351 218.495 157.678C219.083 158.005 219.545 158.471 219.881 159.078C220.226 159.685 220.399 160.38 220.399 161.164C220.399 161.939 220.221 162.629 219.867 163.236C219.512 163.833 219.031 164.3 218.425 164.636C217.818 164.963 217.146 165.126 216.409 165.126C215.69 165.126 215.041 164.963 214.463 164.636C213.893 164.309 213.445 163.847 213.119 163.25C212.801 162.643 212.643 161.948 212.643 161.164C212.643 160.371 212.811 159.675 213.147 159.078C213.492 158.471 213.959 158.005 214.547 157.678C215.135 157.351 215.793 157.188 216.521 157.188ZM216.479 158.238C216.012 158.238 215.587 158.35 215.205 158.574C214.822 158.798 214.514 159.129 214.281 159.568C214.057 160.007 213.945 160.539 213.945 161.164C213.945 161.78 214.052 162.307 214.267 162.746C214.491 163.185 214.789 163.516 215.163 163.74C215.536 163.964 215.951 164.076 216.409 164.076C216.875 164.076 217.309 163.964 217.711 163.74C218.121 163.507 218.453 163.171 218.705 162.732C218.957 162.293 219.083 161.771 219.083 161.164C219.083 160.548 218.961 160.021 218.719 159.582C218.485 159.134 218.168 158.798 217.767 158.574C217.375 158.35 216.945 158.238 216.479 158.238ZM225.156 158.35H223.546V165H222.258V158.35H221.264V157.314H222.258V156.67C222.258 155.83 222.482 155.219 222.93 154.836C223.378 154.453 224.083 154.262 225.044 154.262V155.298C224.484 155.298 224.092 155.405 223.868 155.62C223.654 155.825 223.546 156.175 223.546 156.67V157.314H225.156V158.35ZM233.585 160.842C233.585 161.113 233.567 161.365 233.529 161.598H227.411C227.449 162.363 227.687 162.97 228.125 163.418C228.573 163.857 229.143 164.076 229.833 164.076C230.356 164.076 230.795 163.959 231.149 163.726C231.513 163.493 231.779 163.185 231.947 162.802H233.319C233.077 163.474 232.657 164.029 232.059 164.468C231.471 164.907 230.729 165.126 229.833 165.126C229.115 165.126 228.471 164.963 227.901 164.636C227.341 164.309 226.903 163.847 226.585 163.25C226.268 162.643 226.109 161.948 226.109 161.164C226.109 160.371 226.268 159.675 226.585 159.078C226.903 158.471 227.351 158.005 227.929 157.678C228.508 157.351 229.175 157.188 229.931 157.188C230.65 157.188 231.285 157.347 231.835 157.664C232.386 157.981 232.815 158.415 233.123 158.966C233.431 159.517 233.585 160.142 233.585 160.842ZM232.255 160.674C232.255 160.179 232.148 159.75 231.933 159.386C231.719 159.013 231.425 158.728 231.051 158.532C230.687 158.336 230.281 158.238 229.833 158.238C229.171 158.238 228.615 158.457 228.167 158.896C227.719 159.325 227.472 159.918 227.425 160.674H232.255ZM237.818 157.188C238.649 157.188 239.307 157.407 239.792 157.846C240.277 158.275 240.543 158.868 240.59 159.624H239.274C239.255 159.195 239.111 158.849 238.84 158.588C238.569 158.327 238.196 158.196 237.72 158.196C237.235 158.196 236.852 158.313 236.572 158.546C236.301 158.77 236.166 159.055 236.166 159.4C236.166 159.689 236.25 159.923 236.418 160.1C236.595 160.268 236.81 160.394 237.062 160.478C237.323 160.562 237.673 160.651 238.112 160.744C238.672 160.875 239.12 161.005 239.456 161.136C239.801 161.257 240.095 161.467 240.338 161.766C240.581 162.055 240.702 162.452 240.702 162.956C240.702 163.376 240.581 163.754 240.338 164.09C240.095 164.417 239.755 164.673 239.316 164.86C238.877 165.037 238.373 165.126 237.804 165.126C236.945 165.126 236.255 164.911 235.732 164.482C235.219 164.053 234.939 163.46 234.892 162.704H236.208C236.227 163.133 236.376 163.479 236.656 163.74C236.945 163.992 237.328 164.118 237.804 164.118C238.327 164.118 238.728 164.011 239.008 163.796C239.297 163.581 239.442 163.297 239.442 162.942C239.442 162.653 239.353 162.424 239.176 162.256C239.008 162.079 238.793 161.948 238.532 161.864C238.271 161.771 237.911 161.673 237.454 161.57C236.903 161.449 236.455 161.327 236.11 161.206C235.774 161.075 235.485 160.875 235.242 160.604C235.009 160.333 234.892 159.96 234.892 159.484C234.892 159.064 235.009 158.681 235.242 158.336C235.485 157.981 235.825 157.701 236.264 157.496C236.712 157.291 237.23 157.188 237.818 157.188ZM245.187 157.188C246.018 157.188 246.676 157.407 247.161 157.846C247.647 158.275 247.913 158.868 247.959 159.624H246.643C246.625 159.195 246.48 158.849 246.209 158.588C245.939 158.327 245.565 158.196 245.089 158.196C244.604 158.196 244.221 158.313 243.941 158.546C243.671 158.77 243.535 159.055 243.535 159.4C243.535 159.689 243.619 159.923 243.787 160.1C243.965 160.268 244.179 160.394 244.431 160.478C244.693 160.562 245.043 160.651 245.481 160.744C246.041 160.875 246.489 161.005 246.825 161.136C247.171 161.257 247.465 161.467 247.707 161.766C247.95 162.055 248.071 162.452 248.071 162.956C248.071 163.376 247.95 163.754 247.707 164.09C247.465 164.417 247.124 164.673 246.685 164.86C246.247 165.037 245.743 165.126 245.173 165.126C244.315 165.126 243.624 164.911 243.101 164.482C242.588 164.053 242.308 163.46 242.261 162.704H243.577C243.596 163.133 243.745 163.479 244.025 163.74C244.315 163.992 244.697 164.118 245.173 164.118C245.696 164.118 246.097 164.011 246.377 163.796C246.667 163.581 246.811 163.297 246.811 162.942C246.811 162.653 246.723 162.424 246.545 162.256C246.377 162.079 246.163 161.948 245.901 161.864C245.64 161.771 245.281 161.673 244.823 161.57C244.273 161.449 243.825 161.327 243.479 161.206C243.143 161.075 242.854 160.875 242.611 160.604C242.378 160.333 242.261 159.96 242.261 159.484C242.261 159.064 242.378 158.681 242.611 158.336C242.854 157.981 243.195 157.701 243.633 157.496C244.081 157.291 244.599 157.188 245.187 157.188ZM249.7 155.214C249.7 154.971 249.784 154.766 249.952 154.598C250.12 154.43 250.321 154.346 250.554 154.346C250.797 154.346 251.002 154.43 251.17 154.598C251.338 154.766 251.422 154.971 251.422 155.214C251.422 155.457 251.338 155.662 251.17 155.83C251.002 155.998 250.797 156.082 250.554 156.082C250.312 156.082 250.106 155.998 249.938 155.83C249.78 155.662 249.7 155.457 249.7 155.214ZM251.184 157.314V165H249.91V157.314H251.184ZM256.661 157.188C257.389 157.188 258.047 157.351 258.635 157.678C259.223 158.005 259.685 158.471 260.021 159.078C260.367 159.685 260.539 160.38 260.539 161.164C260.539 161.939 260.362 162.629 260.007 163.236C259.653 163.833 259.172 164.3 258.565 164.636C257.959 164.963 257.287 165.126 256.549 165.126C255.831 165.126 255.182 164.963 254.603 164.636C254.034 164.309 253.586 163.847 253.259 163.25C252.942 162.643 252.783 161.948 252.783 161.164C252.783 160.371 252.951 159.675 253.287 159.078C253.633 158.471 254.099 158.005 254.687 157.678C255.275 157.351 255.933 157.188 256.661 157.188ZM256.619 158.238C256.153 158.238 255.728 158.35 255.345 158.574C254.963 158.798 254.655 159.129 254.421 159.568C254.197 160.007 254.085 160.539 254.085 161.164C254.085 161.78 254.193 162.307 254.407 162.746C254.631 163.185 254.93 163.516 255.303 163.74C255.677 163.964 256.092 164.076 256.549 164.076C257.016 164.076 257.45 163.964 257.851 163.74C258.262 163.507 258.593 163.171 258.845 162.732C259.097 162.293 259.223 161.771 259.223 161.164C259.223 160.548 259.102 160.021 258.859 159.582C258.626 159.134 258.309 158.798 257.907 158.574C257.515 158.35 257.086 158.238 256.619 158.238ZM265.913 157.188C266.464 157.188 266.963 157.314 267.411 157.566C267.868 157.809 268.228 158.177 268.489 158.672C268.76 159.157 268.895 159.75 268.895 160.45V165H267.635V160.66C267.635 159.885 267.448 159.297 267.075 158.896C266.702 158.495 266.184 158.294 265.521 158.294C264.868 158.294 264.35 158.495 263.967 158.896C263.594 159.297 263.407 159.885 263.407 160.66V165H262.133V157.314H263.407V158.56C263.659 158.112 264.004 157.771 264.443 157.538C264.882 157.305 265.372 157.188 265.913 157.188ZM274.088 157.188C274.741 157.188 275.311 157.342 275.796 157.65C276.291 157.958 276.664 158.359 276.916 158.854V157.314H278.204V165H276.916V163.432C276.664 163.936 276.291 164.347 275.796 164.664C275.311 164.972 274.741 165.126 274.088 165.126C273.397 165.126 272.772 164.958 272.212 164.622C271.661 164.277 271.223 163.801 270.896 163.194C270.579 162.578 270.42 161.883 270.42 161.108C270.42 160.333 270.579 159.652 270.896 159.064C271.223 158.467 271.661 158.005 272.212 157.678C272.772 157.351 273.397 157.188 274.088 157.188ZM274.312 158.294C273.855 158.294 273.425 158.406 273.024 158.63C272.632 158.854 272.315 159.181 272.072 159.61C271.839 160.03 271.722 160.529 271.722 161.108C271.722 161.687 271.839 162.2 272.072 162.648C272.315 163.087 272.632 163.427 273.024 163.67C273.425 163.913 273.855 164.034 274.312 164.034C274.779 164.034 275.208 163.917 275.6 163.684C276.001 163.451 276.319 163.119 276.552 162.69C276.795 162.251 276.916 161.743 276.916 161.164C276.916 160.585 276.795 160.081 276.552 159.652C276.319 159.213 276.001 158.877 275.6 158.644C275.208 158.411 274.779 158.294 274.312 158.294ZM281.577 154.64V165H280.303V154.64H281.577ZM286.326 157.188C287.157 157.188 287.815 157.407 288.3 157.846C288.785 158.275 289.051 158.868 289.098 159.624H287.782C287.763 159.195 287.619 158.849 287.348 158.588C287.077 158.327 286.704 158.196 286.228 158.196C285.743 158.196 285.36 158.313 285.08 158.546C284.809 158.77 284.674 159.055 284.674 159.4C284.674 159.689 284.758 159.923 284.926 160.1C285.103 160.268 285.318 160.394 285.57 160.478C285.831 160.562 286.181 160.651 286.62 160.744C287.18 160.875 287.628 161.005 287.964 161.136C288.309 161.257 288.603 161.467 288.846 161.766C289.089 162.055 289.21 162.452 289.21 162.956C289.21 163.376 289.089 163.754 288.846 164.09C288.603 164.417 288.263 164.673 287.824 164.86C287.385 165.037 286.881 165.126 286.312 165.126C285.453 165.126 284.763 164.911 284.24 164.482C283.727 164.053 283.447 163.46 283.4 162.704H284.716C284.735 163.133 284.884 163.479 285.164 163.74C285.453 163.992 285.836 164.118 286.312 164.118C286.835 164.118 287.236 164.011 287.516 163.796C287.805 163.581 287.95 163.297 287.95 162.942C287.95 162.653 287.861 162.424 287.684 162.256C287.516 162.079 287.301 161.948 287.04 161.864C286.779 161.771 286.419 161.673 285.962 161.57C285.411 161.449 284.963 161.327 284.618 161.206C284.282 161.075 283.993 160.875 283.75 160.604C283.517 160.333 283.4 159.96 283.4 159.484C283.4 159.064 283.517 158.681 283.75 158.336C283.993 157.981 284.333 157.701 284.772 157.496C285.22 157.291 285.738 157.188 286.326 157.188Z" fill="white"/>
<path d="M77.528 115.144C78.848 115.144 80.048 115.45 81.128 116.064C82.2213 116.677 83.0813 117.53 83.708 118.624C84.348 119.704 84.668 120.924 84.668 122.284C84.668 123.657 84.348 124.89 83.708 125.984C83.0813 127.064 82.2213 127.91 81.128 128.524C80.0346 129.137 78.8346 129.444 77.528 129.444C76.2213 129.444 75.0213 129.137 73.928 128.524C72.8346 127.91 71.968 127.064 71.328 125.984C70.7013 124.89 70.388 123.657 70.388 122.284C70.388 120.924 70.7013 119.704 71.328 118.624C71.968 117.53 72.8346 116.677 73.928 116.064C75.0213 115.45 76.2213 115.144 77.528 115.144ZM77.528 117.724C76.688 117.724 75.9413 117.91 75.288 118.284C74.648 118.657 74.148 119.19 73.788 119.884C73.428 120.577 73.248 121.377 73.248 122.284C73.248 123.19 73.428 123.99 73.788 124.684C74.148 125.377 74.648 125.917 75.288 126.304C75.9413 126.677 76.688 126.864 77.528 126.864C78.368 126.864 79.108 126.677 79.748 126.304C80.388 125.917 80.888 125.384 81.248 124.704C81.608 124.01 81.788 123.204 81.788 122.284C81.788 121.364 81.608 120.564 81.248 119.884C80.888 119.19 80.388 118.657 79.748 118.284C79.108 117.91 78.368 117.724 77.528 117.724ZM97.3506 118.224V129.304H94.5306V127.624C94.184 128.21 93.7106 128.664 93.1106 128.984C92.524 129.29 91.844 129.444 91.0706 129.444C90.2573 129.444 89.524 129.264 88.8706 128.904C88.2306 128.53 87.724 127.99 87.3506 127.284C86.9773 126.564 86.7906 125.71 86.7906 124.724V118.224H89.5906V124.324C89.5906 125.19 89.8106 125.857 90.2506 126.324C90.6906 126.79 91.2906 127.024 92.0506 127.024C92.8106 127.024 93.4106 126.79 93.8506 126.324C94.304 125.857 94.5306 125.19 94.5306 124.324V118.224H97.3506ZM105.988 126.944V129.304H104.208C103.074 129.304 102.201 129.044 101.588 128.524C100.974 128.004 100.668 127.144 100.668 125.944V120.524H99.4877V118.224H100.668V115.484H103.488V118.224H105.968V120.524H103.488V125.944C103.488 126.304 103.574 126.564 103.748 126.724C103.921 126.87 104.221 126.944 104.648 126.944H105.988ZM119.136 118.064C120.189 118.064 121.149 118.297 122.016 118.764C122.882 119.23 123.569 119.897 124.076 120.764C124.582 121.617 124.836 122.61 124.836 123.744C124.836 124.877 124.582 125.877 124.076 126.744C123.569 127.61 122.876 128.284 121.996 128.764C121.129 129.23 120.162 129.464 119.096 129.464C118.042 129.464 117.082 129.23 116.216 128.764C115.349 128.284 114.662 127.61 114.156 126.744C113.662 125.877 113.416 124.877 113.416 123.744C113.416 122.61 113.669 121.617 114.176 120.764C114.682 119.897 115.369 119.23 116.236 118.764C117.102 118.297 118.069 118.064 119.136 118.064ZM119.116 120.444C118.316 120.444 117.642 120.73 117.096 121.304C116.549 121.877 116.276 122.697 116.276 123.764C116.276 124.484 116.402 125.097 116.656 125.604C116.922 126.097 117.269 126.47 117.696 126.724C118.122 126.964 118.589 127.084 119.096 127.084C119.589 127.084 120.056 126.957 120.496 126.704C120.936 126.45 121.289 126.077 121.556 125.584C121.836 125.077 121.976 124.47 121.976 123.764C121.976 123.044 121.842 122.437 121.576 121.944C121.309 121.437 120.956 121.064 120.516 120.824C120.089 120.57 119.622 120.444 119.116 120.444ZM131.806 120.524H130.046V129.304H127.246V120.524H126.046V118.224H127.246V117.604C127.246 116.27 127.6 115.297 128.306 114.684C129.013 114.07 130.126 113.764 131.646 113.764V116.124C131.06 116.124 130.646 116.237 130.406 116.464C130.166 116.69 130.046 117.07 130.046 117.604V118.224H131.806V120.524ZM149.262 115.344V117.504H145.482V129.304H142.682V117.504H138.922V115.344H149.262ZM156.382 118.064C157.435 118.064 158.395 118.297 159.262 118.764C160.129 119.23 160.815 119.897 161.322 120.764C161.829 121.617 162.082 122.61 162.082 123.744C162.082 124.877 161.829 125.877 161.322 126.744C160.815 127.61 160.122 128.284 159.242 128.764C158.375 129.23 157.409 129.464 156.342 129.464C155.289 129.464 154.329 129.23 153.462 128.764C152.595 128.284 151.909 127.61 151.402 126.744C150.909 125.877 150.662 124.877 150.662 123.744C150.662 122.61 150.915 121.617 151.422 120.764C151.929 119.897 152.615 119.23 153.482 118.764C154.349 118.297 155.315 118.064 156.382 118.064ZM156.362 120.444C155.562 120.444 154.889 120.73 154.342 121.304C153.795 121.877 153.522 122.697 153.522 123.764C153.522 124.484 153.649 125.097 153.902 125.604C154.169 126.097 154.515 126.47 154.942 126.724C155.369 126.964 155.835 127.084 156.342 127.084C156.835 127.084 157.302 126.957 157.742 126.704C158.182 126.45 158.535 126.077 158.802 125.584C159.082 125.077 159.222 124.47 159.222 123.764C159.222 123.044 159.089 122.437 158.822 121.944C158.555 121.437 158.202 121.064 157.762 120.824C157.335 120.57 156.869 120.444 156.362 120.444ZM179.573 118.224L176.173 129.304H173.173L171.273 121.864L169.353 129.304H166.353L162.953 118.224H165.793L167.833 126.644L169.873 118.224H172.833L174.833 126.624L176.873 118.224H179.573ZM187.448 118.064C188.274 118.064 189.008 118.25 189.648 118.624C190.301 118.984 190.814 119.524 191.188 120.244C191.561 120.95 191.748 121.797 191.748 122.784V129.304H188.948V123.184C188.948 122.317 188.728 121.657 188.288 121.204C187.848 120.737 187.248 120.504 186.488 120.504C185.728 120.504 185.121 120.737 184.668 121.204C184.228 121.657 184.008 122.317 184.008 123.184V129.304H181.188V118.224H184.008V119.884C184.354 119.297 184.821 118.85 185.408 118.544C186.008 118.224 186.688 118.064 187.448 118.064ZM207.721 129.304L204.381 123.744H203.461V129.304H200.641V115.344H205.781C206.861 115.344 207.781 115.537 208.541 115.924C209.301 116.297 209.867 116.804 210.241 117.444C210.627 118.07 210.821 118.77 210.821 119.544C210.821 120.424 210.554 121.244 210.021 122.004C209.487 122.764 208.647 123.284 207.501 123.564L211.061 129.304H207.721ZM203.461 121.584H205.781C206.487 121.584 207.027 121.404 207.401 121.044C207.774 120.67 207.961 120.17 207.961 119.544C207.961 118.917 207.774 118.424 207.401 118.064C207.027 117.69 206.487 117.504 205.781 117.504H203.461V121.584ZM223.889 123.604C223.889 123.99 223.862 124.35 223.809 124.684H215.729C215.796 125.404 216.062 125.984 216.529 126.424C216.996 126.864 217.589 127.084 218.309 127.084C218.869 127.084 219.316 126.977 219.649 126.764C219.982 126.55 220.256 126.257 220.469 125.884H223.509C223.189 126.937 222.569 127.797 221.649 128.464C220.729 129.13 219.616 129.464 218.309 129.464C217.256 129.464 216.316 129.23 215.489 128.764C214.662 128.284 214.016 127.617 213.549 126.764C213.082 125.897 212.849 124.89 212.849 123.744C212.849 122.597 213.082 121.597 213.549 120.744C214.016 119.89 214.662 119.23 215.489 118.764C216.329 118.297 217.282 118.064 218.349 118.064C219.416 118.064 220.362 118.29 221.189 118.744C222.029 119.197 222.689 119.844 223.169 120.684C223.649 121.51 223.889 122.484 223.889 123.604ZM220.969 122.864C220.929 122.13 220.656 121.544 220.149 121.104C219.656 120.664 219.042 120.444 218.309 120.444C217.629 120.444 217.049 120.664 216.569 121.104C216.102 121.544 215.822 122.13 215.729 122.864H220.969ZM230.849 120.524H229.089V129.304H226.289V120.524H225.089V118.224H226.289V117.604C226.289 116.27 226.643 115.297 227.349 114.684C228.056 114.07 229.169 113.764 230.689 113.764V116.124C230.103 116.124 229.689 116.237 229.449 116.464C229.209 116.69 229.089 117.07 229.089 117.604V118.224H230.849V120.524ZM243.049 123.604C243.049 123.99 243.022 124.35 242.969 124.684H234.889C234.956 125.404 235.222 125.984 235.689 126.424C236.156 126.864 236.749 127.084 237.469 127.084C238.029 127.084 238.476 126.977 238.809 126.764C239.142 126.55 239.416 126.257 239.629 125.884H242.669C242.349 126.937 241.729 127.797 240.809 128.464C239.889 129.13 238.776 129.464 237.469 129.464C236.416 129.464 235.476 129.23 234.649 128.764C233.822 128.284 233.176 127.617 232.709 126.764C232.242 125.897 232.009 124.89 232.009 123.744C232.009 122.597 232.242 121.597 232.709 120.744C233.176 119.89 233.822 119.23 234.649 118.764C235.489 118.297 236.442 118.064 237.509 118.064C238.576 118.064 239.522 118.29 240.349 118.744C241.189 119.197 241.849 119.844 242.329 120.684C242.809 121.51 243.049 122.484 243.049 123.604ZM240.129 122.864C240.089 122.13 239.816 121.544 239.309 121.104C238.816 120.664 238.202 120.444 237.469 120.444C236.789 120.444 236.209 120.664 235.729 121.104C235.262 121.544 234.982 122.13 234.889 122.864H240.129ZM248.09 120.184C248.436 119.517 248.883 118.997 249.43 118.624C249.99 118.25 250.623 118.064 251.33 118.064V120.944H250.63C249.79 120.944 249.156 121.157 248.73 121.584C248.303 121.997 248.09 122.717 248.09 123.744V129.304H245.27V118.224H248.09V120.184ZM256.156 120.184C256.503 119.517 256.949 118.997 257.496 118.624C258.056 118.25 258.689 118.064 259.396 118.064V120.944H258.696C257.856 120.944 257.223 121.157 256.796 121.584C256.369 121.997 256.156 122.717 256.156 123.744V129.304H253.336V118.224H256.156V120.184ZM265.762 118.064C266.549 118.064 267.249 118.23 267.862 118.564C268.476 118.897 268.969 119.357 269.342 119.944V118.224H272.142V129.304H269.342V127.444C268.956 128.07 268.456 128.564 267.842 128.924C267.242 129.284 266.549 129.464 265.762 129.464C264.816 129.464 263.949 129.224 263.162 128.744C262.389 128.25 261.769 127.57 261.302 126.704C260.849 125.837 260.622 124.85 260.622 123.744C260.622 122.637 260.849 121.657 261.302 120.804C261.769 119.937 262.389 119.264 263.162 118.784C263.949 118.304 264.816 118.064 265.762 118.064ZM266.402 120.504C265.909 120.504 265.436 120.63 264.982 120.884C264.542 121.137 264.182 121.51 263.902 122.004C263.622 122.484 263.482 123.064 263.482 123.744C263.482 124.424 263.622 125.017 263.902 125.524C264.182 126.017 264.542 126.39 264.982 126.644C265.436 126.897 265.909 127.024 266.402 127.024C266.909 127.024 267.382 126.897 267.822 126.644C268.276 126.39 268.642 126.017 268.922 125.524C269.202 125.03 269.342 124.444 269.342 123.764C269.342 123.084 269.202 122.497 268.922 122.004C268.642 121.51 268.276 121.137 267.822 120.884C267.382 120.63 266.909 120.504 266.402 120.504ZM277.953 114.504V129.304H275.133V114.504H277.953ZM284.913 118.064C286.18 118.064 287.22 118.39 288.033 119.044C288.846 119.684 289.28 120.557 289.333 121.664H286.453C286.373 120.73 285.8 120.264 284.733 120.264C284.2 120.264 283.786 120.37 283.493 120.584C283.2 120.797 283.053 121.077 283.053 121.424C283.053 121.717 283.16 121.95 283.373 122.124C283.586 122.297 283.846 122.437 284.153 122.544C284.473 122.637 284.926 122.75 285.513 122.884C286.326 123.057 286.993 123.244 287.513 123.444C288.046 123.63 288.5 123.937 288.873 124.364C289.246 124.777 289.433 125.35 289.433 126.084C289.433 126.75 289.24 127.337 288.853 127.844C288.466 128.35 287.933 128.75 287.253 129.044C286.573 129.324 285.806 129.464 284.953 129.464C283.62 129.464 282.533 129.157 281.693 128.544C280.853 127.917 280.393 127.024 280.313 125.864H283.193C283.246 126.317 283.426 126.664 283.733 126.904C284.04 127.144 284.453 127.264 284.973 127.264C285.493 127.264 285.913 127.15 286.233 126.924C286.553 126.684 286.713 126.384 286.713 126.024C286.713 125.73 286.606 125.497 286.393 125.324C286.18 125.137 285.913 124.997 285.593 124.904C285.273 124.797 284.813 124.677 284.213 124.544C283.4 124.37 282.733 124.19 282.213 124.004C281.706 123.817 281.266 123.524 280.893 123.124C280.52 122.71 280.333 122.157 280.333 121.464C280.333 120.85 280.513 120.284 280.873 119.764C281.233 119.244 281.76 118.83 282.453 118.524C283.146 118.217 283.966 118.064 284.913 118.064Z" fill="white"/>
<path d="M229.954 14.6966L211.058 39.471L222.815 54.5875L229.954 44.9297L268.165 93.6386H290L229.954 14.6966Z" fill="white"/>
<path d="M131.276 14.6966L70.3903 94.0585H93.485L131.276 45.3496L139.674 55.0074L151.432 40.3108L131.276 14.6966Z" fill="white"/>
<path d="M180.825 0L109.021 94.4784H135.475L180.825 34.852L226.594 94.4784H253.048L216.937 47.2392L180.825 0Z" fill="url(#paint0_linear_573_2974)"/>
<path d="M68.7106 104.976H288.74" stroke="url(#paint1_linear_573_2974)" stroke-width="2"/>
<path d="M69.7687 143.607H289.798" stroke="url(#paint2_linear_573_2974)" stroke-width="2"/>
<rect x="169" y="88" width="9" height="11" fill="white"/>
<rect x="179" y="88" width="9" height="11" fill="white"/>
<path d="M179 76C183.971 76 188 80.0294 188 85V87H179V76Z" fill="white"/>
<path d="M169 85C169 80.0294 173.029 76 178 76V87H169V85Z" fill="white"/>
<defs>
<linearGradient id="paint0_linear_573_2974" x1="181.035" y1="0" x2="181.035" y2="94.4784" gradientUnits="userSpaceOnUse">
<stop stop-color="#00FF66"/>
<stop offset="1" stop-color="#0094FF"/>
</linearGradient>
<linearGradient id="paint1_linear_573_2974" x1="68.7106" y1="105.476" x2="288.74" y2="105.476" gradientUnits="userSpaceOnUse">
<stop stop-color="#00FF66"/>
<stop offset="1" stop-color="#0094FF"/>
</linearGradient>
<linearGradient id="paint2_linear_573_2974" x1="69.7687" y1="144.107" x2="289.798" y2="144.107" gradientUnits="userSpaceOnUse">
<stop stop-color="#0D7E8E"/>
<stop offset="0.0001" stop-color="#00FF66"/>
<stop offset="1" stop-color="#0094FF"/>
</linearGradient>
</defs>
</svg>
